<?xml version="1.0" encoding="UTF-8" standalone="no"?>
<svg
   xmlns:dc="http://purl.org/dc/elements/1.1/"
   xmlns:cc="http://creativecommons.org/ns#"
   xmlns:rdf="http://www.w3.org/1999/02/22-rdf-syntax-ns#"
   xmlns:svg="http://www.w3.org/2000/svg"
   xmlns="http://www.w3.org/2000/svg"
   id="svg5"
   version="1.1"
   viewBox="0 0 24 24"
   role="img"
   aria-labelledby="simpleicons-nginx-icon">
  <metadata
     id="metadata11">
    <rdf:RDF>
      <cc:Work
         rdf:about="">
        <dc:format>image/svg+xml</dc:format>
        <dc:type
           rdf:resource="http://purl.org/dc/dcmitype/StillImage" />
        <dc:title>NGINX icon</dc:title>
      </cc:Work>
    </rdf:RDF>
  </metadata>
  <defs
     id="defs9" />
  <title
     id="simpleicons-nginx-icon">NGINX icon</title>
  <path
     style="color:#000000;font-style:normal;font-variant:normal;font-weight:normal;font-stretch:normal;font-size:medium;line-height:normal;font-family:sans-serif;font-variant-ligatures:normal;font-variant-position:normal;font-variant-caps:normal;font-variant-numeric:normal;font-variant-alternates:normal;font-feature-settings:normal;text-indent:0;text-align:start;text-decoration:none;text-decoration-line:none;text-decoration-style:solid;text-decoration-color:#000000;letter-spacing:normal;word-spacing:normal;text-transform:none;writing-mode:lr-tb;direction:ltr;text-orientation:mixed;dominant-baseline:auto;baseline-shift:baseline;text-anchor:start;white-space:normal;shape-padding:0;clip-rule:nonzero;display:inline;overflow:visible;visibility:visible;opacity:1;isolation:auto;mix-blend-mode:normal;color-interpolation:sRGB;color-interpolation-filters:linearRGB;solid-color:#000000;solid-opacity:1;vector-effect:none;fill:#000000;fill-opacity:1;fill-rule:nonzero;stroke:none;stroke-width:0.13543253;stroke-linecap:butt;stroke-linejoin:miter;stroke-miterlimit:4;stroke-dasharray:none;stroke-dashoffset:0;stroke-opacity:1;color-rendering:auto;image-rendering:auto;shape-rendering:auto;text-rendering:auto;enable-background:accumulate"
     d="M 0.26307545,0.0229116 6.0699721,23.942403 23.795835,7.0368601 l 0.08482,-0.08096 z M 0.45021302,0.21924287 4.9062203,1.5274257 1.5457531,4.7324889 Z M 5.1301327,1.5929685 9.5879198,2.9014477 6.2259694,6.1076972 Z M 4.998751,1.6264812 6.0931049,6.1361682 1.6403598,4.8291716 Z M 9.8103498,2.9669904 14.254197,4.2713179 10.902034,7.4683731 Z M 9.6789674,3.0016892 10.772431,7.5095973 6.322059,6.2031931 Z m 4.8038876,1.3369505 4.453041,1.3069965 -3.357205,3.202098 z M 14.34999,4.3671102 15.44731,8.8812463 10.98893,7.5727654 Z M 1.600619,4.9590705 6.0587023,6.2672532 2.6967522,9.4738 Z m 17.562155,0.7532951 4.454525,1.3075899 -3.358094,3.2026915 z M 19.030502,5.7426161 20.127228,10.254676 15.670926,8.94679 Z M 6.2802423,6.3322029 10.725574,7.6368269 7.3728168,10.83418 Z M 6.1494538,6.367791 7.2432144,10.875403 2.7925455,9.5695931 Z m 4.8101152,1.3378412 4.448,1.3052177 -3.355129,3.2000211 z m -0.13405,0.022832 1.096429,4.5191778 -4.4622357,-1.309072 z m 4.808927,1.3488139 4.454822,1.3075899 -3.358392,3.202691 z m -0.132271,0.030252 1.096727,4.5120579 -4.456897,-1.307291 z m -12.7505565,0.591367 4.444738,1.3037349 -3.3521638,3.197054 z m 4.6790299,1.3725389 4.4482966,1.304624 -3.3551282,3.200021 z m -0.1343478,0.02283 1.0961338,4.515618 -4.4571938,-1.309962 z m 4.8124884,1.349406 4.452151,1.306106 -3.35839,3.202691 z m -0.132865,0.02699 1.094948,4.513839 -4.4551182,-1.309073 z m -8.0753824,1.960642 4.4521525,1.307886 -3.3575022,3.202097 z m 12.6414184,0.38169 v 0.64475 h 0.509513 v -0.64475 z m -7.9623877,0.992926 4.4530407,1.308776 -3.3580938,3.202689 z m -0.1322718,0.03025 1.0952441,4.513245 -4.4548218,-1.309073 z m 10.6523045,0.108836 c -0.380143,0 -0.673551,0.07945 -0.880229,0.238148 -0.206678,0.1587 -0.309918,0.383734 -0.309918,0.675298 0,0.239894 0.07002,0.428943 0.210269,0.567343 0.140246,0.136557 0.368343,0.238148 0.683897,0.304582 l 0.177054,0.04152 c 0.315555,0.06827 0.519563,0.139422 0.61183,0.213235 0.09411,0.07381 0.14117,0.179821 0.14117,0.318223 0,0.149474 -0.06479,0.265729 -0.193961,0.34877 -0.129173,0.08119 -0.313509,0.121891 -0.553404,0.121891 -0.178998,0 -0.360039,-0.02408 -0.542728,-0.07207 -0.182689,-0.04982 -0.368145,-0.123736 -0.556371,-0.22154 v 0.52612 c 0.199297,0.06459 0.388642,0.112463 0.567641,0.143838 0.180844,0.03321 0.354107,0.04982 0.520188,0.04982 0.398594,0 0.71138,-0.08386 0.938357,-0.251789 0.228823,-0.167925 0.343432,-0.396024 0.343432,-0.683898 0,-0.252812 -0.07668,-0.449341 -0.229844,-0.589587 -0.151319,-0.142091 -0.40792,-0.251692 -0.769607,-0.329195 l -0.174386,-0.03885 c -0.27311,-0.0609 -0.454678,-0.124559 -0.5451,-0.190991 -0.09043,-0.06827 -0.135829,-0.161568 -0.135829,-0.27967 0,-0.155008 0.06284,-0.271263 0.188322,-0.348768 0.127328,-0.07751 0.317499,-0.116256 0.57031,-0.116256 0.166081,0 0.326626,0.01855 0.481635,0.05546 0.155008,0.03691 0.30448,0.09226 0.448417,0.16608 v -0.481635 c -0.140246,-0.05537 -0.293606,-0.09688 -0.459687,-0.12456 -0.166081,-0.02768 -0.343234,-0.04152 -0.531458,-0.04152 z m -2.557645,0.07473 v 3.155535 c 0,0.282338 -0.03486,0.467794 -0.104986,0.55637 -0.07012,0.09043 -0.202164,0.135534 -0.395925,0.135534 h -0.135533 v 0.431811 h 0.193661 c 0.334007,0 0.575649,-0.08858 0.72512,-0.265729 0.15132,-0.177155 0.227177,-0.463084 0.227177,-0.857986 v -3.155533 z m -1.732579,2.397199 v 0.702878 h 0.583952 V 18.41694 Z m -9.7584332,0.753887 4.4536353,1.308776 -3.3583917,3.202987 z"
     id="line2" />
</svg>
