<?xml version="1.0" encoding="UTF-8" standalone="no"?>
<svg
   xmlns:dc="http://purl.org/dc/elements/1.1/"
   xmlns:cc="http://creativecommons.org/ns#"
   xmlns:rdf="http://www.w3.org/1999/02/22-rdf-syntax-ns#"
   xmlns:svg="http://www.w3.org/2000/svg"
   xmlns="http://www.w3.org/2000/svg"
   id="svg9"
   version="1.1"
   viewBox="0 0 24 24"
   role="img"
   aria-labelledby="simpleicons-php-icon">
  <metadata
     id="metadata15">
    <rdf:RDF>
      <cc:Work
         rdf:about="">
        <dc:format>image/svg+xml</dc:format>
        <dc:type
           rdf:resource="http://purl.org/dc/dcmitype/StillImage" />
        <dc:title>PHP icon</dc:title>
      </cc:Work>
    </rdf:RDF>
  </metadata>
  <defs
     id="defs13" />
  <title
     id="simpleicons-php-icon">PHP icon</title>
  <path
     id="path14"
     d="m 9.3728848,5.9038676 c -5.1123953,-0.00103 -9.25718871,2.871503 -9.25763045,6.4158734 -5.1102e-4,3.54426 4.14360765,6.418541 9.25600295,6.419451 3.3247707,6.13e-4 6.2366437,-1.286151 7.8691357,-3.110549 -1.491728,1.089719 -3.725925,1.709973 -6.218749,1.709973 -4.491181,0 -8.1319992,-2.246215 -8.1319992,-5.017128 0,-0.848068 0.3411277,-1.646942 0.9432469,-2.3473585 L 4.938239,15.020694 h 0.7599278 l 1.0701093,-4.561637 1.0571985,4.561637 H 8.5876191 L 9.9043904,9.2129357 H 9.0474379 L 8.190105,13.66868 7.1549224,9.2129357 H 6.3688595 L 5.335959,13.66872 4.4978729,9.3258527 V 9.32581 C 5.980369,8.0989271 8.3505649,7.3043993 11.021644,7.3043993 c 2.501944,0 4.745274,0.6317788 6.237027,1.7283091 C 15.630384,7.1954707 12.710912,5.9044623 9.3728848,5.9038676 Z m 8.9512912,3.5891997 c -0.340439,0 -0.646393,0.072541 -0.918116,0.2173119 -0.271701,0.144974 -0.500636,0.3446578 -0.68696,0.5993838 -0.186325,0.254755 -0.329189,0.553077 -0.428461,0.895107 -0.09932,0.342171 -0.14898,0.713045 -0.14898,1.112378 0,0.389539 0.04983,0.753043 0.14943,1.090134 0.09958,0.337091 0.242679,0.63051 0.429497,0.880097 0.186726,0.249875 0.415962,0.445812 0.687827,0.58812 0.254852,0.13333 0.539715,0.204303 0.854841,0.212653 0.021,6.14e-4 0.04214,8.27e-4 0.06341,8.27e-4 0.215604,0 0.429325,-0.05365 0.640958,-0.160853 0.211654,-0.107115 0.404735,-0.295372 0.579033,-0.564545 l 0.09931,0.60558 h 0.620467 V 12.08275 H 18.40178 v 0.87827 h 0.983471 c -0.02921,0.372936 -0.131977,0.657575 -0.308659,0.853948 -0.176635,0.196317 -0.426771,0.294517 -0.750788,0.294517 -0.220354,0 -0.407392,-0.05122 -0.561035,-0.153619 -0.153786,-0.102399 -0.278451,-0.238363 -0.37394,-0.408142 -0.09552,-0.169724 -0.165069,-0.360816 -0.208762,-0.573027 -0.04365,-0.212154 -0.06543,-0.430671 -0.06543,-0.655509 0,-0.23469 0.02164,-0.461806 0.06532,-0.681536 0.04349,-0.219762 0.112937,-0.415699 0.20845,-0.588118 0.09549,-0.172223 0.220013,-0.309677 0.373491,-0.41205 0.153525,-0.1024 0.340249,-0.153579 0.560271,-0.153579 0.236397,0 0.43764,0.07476 0.603783,0.224298 0.165956,0.149544 0.278022,0.373876 0.336176,0.672764 h 0.933625 c -0.02492,-0.30397 -0.09346,-0.573193 -0.205537,-0.807883 C 19.880186,10.338594 19.738075,10.14123 19.565834,9.9811007 19.39357,9.8210272 19.200685,9.6996078 18.986974,9.6169035 18.77324,9.5343969 18.552371,9.4930522 18.324175,9.4930522 Z m 2.552063,0.1351182 v 5.3370485 h 3.141203 V 13.974381 H 21.85116 V 9.6281855 Z m -8.094305,0.1158266 v 5.2775969 h 0.598693 v -0.359207 c 0.05255,0.08259 0.120094,0.169748 0.209557,0.246747 0.169808,0.146166 0.379876,0.220221 0.624378,0.220221 0.262981,0 0.497408,-0.07044 0.696895,-0.209454 0.177794,-0.123856 0.328308,-0.302309 0.447427,-0.530329 0.103997,-0.19907 0.183151,-0.433536 0.235136,-0.696919 0.04492,-0.227678 0.06867,-0.476821 0.06867,-0.720449 0,-0.269204 -0.03076,-0.523657 -0.09145,-0.756331 -0.06115,-0.234661 -0.151293,-0.441415 -0.267814,-0.614601 -0.120349,-0.178777 -0.266298,-0.317807 -0.433789,-0.413255 -0.174865,-0.09965 -0.370885,-0.150168 -0.582564,-0.150168 h -8.6e-4 c -0.195303,0.0039 -0.373633,0.05495 -0.529948,0.15208 -0.129257,0.08024 -0.245093,0.192869 -0.345522,0.3358 V 9.7440124 Z m -1.797292,1.2913999 c -0.260122,0 -0.494464,0.05663 -0.696549,0.168377 -0.191641,0.106005 -0.3552584,0.261818 -0.4862651,0.463188 -0.2424685,0.372651 -0.3706181,0.897729 -0.3706181,1.518354 0,0.276241 0.032609,0.535423 0.096953,0.770424 0.064725,0.23625 0.1602753,0.44366 0.2839792,0.616307 0.260096,0.363 0.630888,0.554856 1.072323,0.554856 0.23179,0 0.421055,-0.02909 0.57848,-0.08898 0.137598,-0.05229 0.229032,-0.120029 0.303915,-0.179436 0.09651,-0.07647 0.185151,-0.170471 0.263558,-0.279259 0.06654,-0.09238 0.125807,-0.195569 0.176186,-0.306655 0.0902,-0.198985 0.133864,-0.384845 0.143789,-0.483557 l 0.0065,-0.06531 h -0.631474 l -0.0034,0.05376 c -0.01593,0.246411 -0.285219,0.686652 -0.764983,0.686652 -0.685843,0 -0.849221,-0.595522 -0.860068,-1.119904 h 2.296122 v -0.05825 c 0,-0.338168 -0.0288,-0.646917 -0.08564,-0.917763 -0.05811,-0.277062 -0.145936,-0.516207 -0.261063,-0.710765 -0.119048,-0.201218 -0.267929,-0.35613 -0.442651,-0.460432 -0.179661,-0.107283 -0.387978,-0.161601 -0.619081,-0.161601 z m -0.07252,0.684319 c 0.508689,0 0.780635,0.328871 0.830162,1.004867 h -1.644677 c 0.0241,-0.550464 0.387305,-1.004867 0.814515,-1.004867 z m 3.278242,0.0024 c 0.340631,0 0.568442,0.160355 0.696447,0.490211 0.105745,0.272607 0.11935,0.603051 0.11935,0.860475 0,0.414347 -0.06939,0.761605 -0.200728,1.004239 -0.139821,0.258502 -0.342723,0.389516 -0.602987,0.389516 -0.376336,0 -0.815796,-0.316087 -0.815796,-1.206877 0,-0.426663 0.0439,-0.754946 0.1342,-1.003743 0.130391,-0.359197 0.349421,-0.533821 0.669514,-0.533821 z"
     style="fill:#000000;fill-opacity:1;fill-rule:nonzero;stroke:none;stroke-width:0.00258973" />
</svg>
